<?xml version="1.0" standalone="no"?><!DOCTYPE svg PUBLIC "-//W3C//DTD SVG 1.1//EN" "http://www.w3.org/Graphics/SVG/1.1/DTD/svg11.dtd"><svg t="1627134783606" class="icon" viewBox="0 0 1024 1024" version="1.1" xmlns="http://www.w3.org/2000/svg" p-id="2920" xmlns:xlink="http://www.w3.org/1999/xlink" width="200" height="200"><defs><style type="text/css">@font-face { font-family: feedback-iconfont; src: url("//at.alicdn.com/t/font_1031158_1uhr8ri0pk5.eot?#iefix") format("embedded-opentype"), url("//at.alicdn.com/t/font_1031158_1uhr8ri0pk5.woff2") format("woff2"), url("//at.alicdn.com/t/font_1031158_1uhr8ri0pk5.woff") format("woff"), url("//at.alicdn.com/t/font_1031158_1uhr8ri0pk5.ttf") format("truetype"), url("//at.alicdn.com/t/font_1031158_1uhr8ri0pk5.svg#iconfont") format("svg"); }
</style></defs><path d="M851.39456 122.88H273.69472a100.96128 100.96128 0 0 0-100.93056 100.7616v150.528a28.672 28.672 0 0 0 57.344 0v-150.528a43.5968 43.5968 0 0 1 43.58656-43.52h577.69984a43.59168 43.59168 0 0 1 43.58144 43.52v576.73216a43.59168 43.59168 0 0 1-43.58144 43.52H273.69472a43.5968 43.5968 0 0 1-43.58656-43.52v-148.41344a28.672 28.672 0 0 0-57.344 0v148.41344A100.96128 100.96128 0 0 0 273.69472 901.12h577.69984A100.96128 100.96128 0 0 0 952.32 800.37376V223.616A100.96128 100.96128 0 0 0 851.39456 122.88zM309.95968 617.68192a28.672 28.672 0 0 0 42.10688 38.86592l97.19808-104.96a28.24704 28.24704 0 0 0 8.43264-42.14784 35.79904 35.79904 0 0 0-5.56032-8.6272L352.41984 389.03808a28.672 28.672 0 0 0-42.81856 38.08768l63.4368 71.08608H95.232a28.62592 28.62592 0 1 0 0 57.25184h272.34304z" fill="#2966C1" p-id="2921"></path><path d="M783.60064 539.648h-76.288v-31.8208h76.3136a28.79488 28.79488 0 0 0 0-57.58464h-42.81344l57.99936-58.51136a28.97408 28.97408 0 0 0 0-40.71936 28.36992 28.36992 0 0 0-40.36096 0l-81.26464 81.95584L595.968 351.01696a28.37504 28.37504 0 0 0-40.36608 0 28.97408 28.97408 0 0 0 0 40.71936l57.99936 58.51136h-39.69024a28.79488 28.79488 0 0 0 0 57.58464h76.3136v31.81568h-76.288a28.78976 28.78976 0 0 0 0 57.57952h76.3136v51.79904a28.53888 28.53888 0 1 0 57.07776 0v-51.79392h76.3136a28.78976 28.78976 0 0 0-0.04096-57.58464z" fill="#FD9A16" p-id="2922"></path></svg>