<?xml version="1.0" standalone="no"?><!DOCTYPE svg PUBLIC "-//W3C//DTD SVG 1.1//EN" "http://www.w3.org/Graphics/SVG/1.1/DTD/svg11.dtd"><svg t="1627134648856" class="icon" viewBox="0 0 1024 1024" version="1.1" xmlns="http://www.w3.org/2000/svg" p-id="1285" xmlns:xlink="http://www.w3.org/1999/xlink" width="200" height="200"><defs><style type="text/css">@font-face { font-family: feedback-iconfont; src: url("//at.alicdn.com/t/font_1031158_1uhr8ri0pk5.eot?#iefix") format("embedded-opentype"), url("//at.alicdn.com/t/font_1031158_1uhr8ri0pk5.woff2") format("woff2"), url("//at.alicdn.com/t/font_1031158_1uhr8ri0pk5.woff") format("woff"), url("//at.alicdn.com/t/font_1031158_1uhr8ri0pk5.ttf") format("truetype"), url("//at.alicdn.com/t/font_1031158_1uhr8ri0pk5.svg#iconfont") format("svg"); }
</style></defs><path d="M705.7408 326.0416c-11.6736 13.9264-29.2864 21.504-47.7184 21.504H386.4576c-18.6368 0-36.2496-8.192-48.3328-22.1184-30.3104-35.0208-58.1632-77.2096-58.1632-108.3392 0-77.2096 64.512-64.7168 110.3872-65.3312 39.3216-0.4096 72.704-66.9696 102.6048-43.4176C534.528 141.312 533.504 175.5136 559.9232 172.032c35.4304-4.9152 4.5056-63.6928 95.8464-63.6928 91.136 0 122.6752 36.6592 110.592 108.7488-5.9392 36.0448-32.5632 76.1856-60.6208 108.9536z m-383.3856 88.2688c14.5408-14.9504 34.6112-23.1424 55.7056-23.1424h289.792c21.9136 0 43.008 9.0112 57.344 25.1904 84.1728 93.7984 151.552 224.256 151.552 323.584 0 87.04-88.064 194.9696-196.608 194.9696H343.8592c-108.544 0-196.608-108.7488-196.608-194.9696 0-97.6896 83.968-231.8336 175.104-325.632zM530.432 814.4896c83.968 0 151.9616-67.3792 151.9616-150.7328 0-83.1488-67.9936-150.7328-151.9616-150.7328s-151.9616 67.3792-151.9616 150.7328c-0.2048 83.1488 67.9936 150.7328 151.9616 150.7328z" fill="#EC7F37" p-id="1286"></path><path d="M763.2896 227.328c0.8192-3.4816 1.8432-6.9632 2.4576-10.24 12.0832-72.0896-19.456-108.7488-110.592-108.7488S594.7392 167.1168 559.3088 172.032c-26.4192 3.6864-25.3952-30.72-66.9696-63.6928-29.9008-23.552-63.2832 43.008-102.6048 43.4176-45.8752 0.6144-110.3872-11.8784-110.3872 65.3312 0 3.2768 0.4096 6.7584 1.024 10.24h482.9184z" fill="#F8C846" opacity=".2" p-id="1287"></path><path d="M735.6416 285.696c14.7456-22.7328 26.4192-46.4896 30.1056-68.608 12.0832-72.0896-19.456-108.7488-110.592-108.7488S594.7392 167.1168 559.3088 172.032c-26.4192 3.6864-25.3952-30.72-66.9696-63.6928-29.9008-23.552-63.2832 43.008-102.6048 43.4176-45.8752 0.6144-110.3872-11.8784-110.3872 65.3312 0 19.8656 11.4688 44.4416 27.648 68.608h428.6464z" fill="#F8C846" opacity=".2" p-id="1288"></path><path d="M667.2384 391.168H377.4464c-20.8896 0-41.1648 8.3968-55.7056 23.1424-14.1312 14.5408-28.0576 30.3104-41.5744 46.4896h480.8704c-11.6736-15.36-23.7568-30.3104-36.4544-44.4416-14.336-16.1792-35.4304-25.1904-57.344-25.1904zM385.8432 347.5456H657.408c18.2272 0 36.0448-7.5776 47.7184-21.504 28.0576-32.768 54.6816-73.1136 60.6208-109.1584 12.0832-72.0896-19.456-108.7488-110.592-108.7488s-60.416 58.7776-95.8464 63.6928c-26.4192 3.6864-25.3952-30.72-66.9696-63.6928-29.9008-23.552-63.2832 43.008-102.6048 43.4176-45.8752 0.6144-110.3872-11.8784-110.3872 65.3312 0 31.1296 27.8528 73.3184 58.1632 108.3392 12.0832 14.1312 29.696 22.3232 48.3328 22.3232z" fill="#F8C846" opacity=".2" p-id="1289"></path><path d="M667.8528 391.168H378.0608c-20.8896 0-41.1648 8.3968-55.7056 23.1424-38.2976 39.5264-75.1616 86.016-105.2672 133.9392h215.6544c26.4192-21.9136 60.416-35.2256 97.4848-35.2256s71.0656 13.312 97.4848 35.2256h190.2592c-25.6-47.104-57.7536-92.7744-92.9792-131.8912-14.1312-16.1792-35.2256-25.1904-57.1392-25.1904zM386.4576 347.5456h271.5648c18.2272 0 36.0448-7.5776 47.7184-21.504 28.0576-32.768 54.6816-73.1136 60.6208-109.1584 12.0832-72.0896-19.456-108.7488-110.592-108.7488s-60.416 58.7776-95.8464 63.6928c-26.4192 3.6864-25.3952-30.72-66.9696-63.6928-29.9008-23.552-63.2832 43.008-102.6048 43.4176-45.8752 0.6144-110.3872-11.8784-110.3872 65.3312 0 31.1296 27.8528 73.3184 58.1632 108.3392 12.0832 14.1312 29.696 22.3232 48.3328 22.3232z" fill="#F8C846" opacity=".2" p-id="1290"></path><path d="M386.6624 347.7504h271.5648c18.2272 0 36.0448-7.5776 47.7184-21.504 28.0576-32.768 54.6816-73.1136 60.6208-109.1584 12.0832-72.0896-19.456-108.7488-110.592-108.7488S595.5584 167.1168 560.128 172.032c-26.4192 3.6864-25.3952-30.72-66.9696-63.6928-29.9008-23.552-63.2832 43.008-102.6048 43.4176-45.8752 0.6144-110.3872-11.8784-110.3872 65.3312 0 31.1296 27.8528 73.3184 58.1632 108.3392 12.0832 14.1312 29.696 22.3232 48.3328 22.3232zM668.0576 391.3728H378.0608c-20.8896 0-41.1648 8.3968-55.7056 23.1424-73.5232 75.776-142.1312 177.5616-166.0928 265.216h222.8224c-0.6144-5.12-0.8192-10.4448-0.8192-15.7696 0-83.1488 67.9936-150.7328 151.9616-150.7328s151.9616 67.3792 151.9616 150.7328c0 5.3248-0.2048 10.6496-0.8192 15.7696h188.2112c-19.456-87.8592-76.5952-187.392-144.384-263.3728-14.336-15.9744-35.4304-24.9856-57.1392-24.9856z" fill="#F8C846" opacity=".2" p-id="1291"></path><path d="M547.84 595.968l59.5968 58.9824c8.192 8.192 8.192 21.2992 0 29.4912L547.84 743.424c-8.192 8.192-21.504 8.192-29.696 0l-59.5968-58.9824c-8.192-8.192-8.192-21.2992 0-29.4912L518.144 595.968c7.9872-8.192 21.504-8.192 29.696 0z" fill="#EC7F37" p-id="1292"></path><path d="M560.9472 609.0752l-13.1072-13.1072c-8.192-8.192-21.504-8.192-29.696 0l-13.1072 13.1072h55.9104z" fill="#F8C846" opacity=".2" p-id="1293"></path><path d="M583.0656 630.9888L547.84 595.968c-8.192-8.192-21.504-8.192-29.696 0l-35.2256 35.0208h100.1472z" fill="#F8C846" opacity=".2" p-id="1294"></path><path d="M612.5568 664.9856c-0.8192-3.6864-2.4576-7.168-5.3248-10.0352l-59.392-58.9824c-8.192-8.192-21.504-8.192-29.696 0l-59.5968 58.9824c-2.8672 2.8672-4.3008 6.3488-5.3248 10.0352h159.3344z" fill="#F8C846" opacity=".2" p-id="1295"></path><path d="M460.8 686.8992h143.9744l2.4576-2.4576c8.192-8.192 8.192-21.2992 0-29.4912l-59.392-58.9824c-8.192-8.192-21.504-8.192-29.696 0l-59.5968 58.9824c-8.192 8.192-8.192 21.2992 0 29.4912l2.2528 2.4576z" fill="#F8C846" opacity=".2" p-id="1296"></path><path d="M497.664 723.3536h70.4512l39.1168-38.912c8.192-8.192 8.192-21.2992 0-29.4912l-59.392-58.9824c-8.192-8.192-21.504-8.192-29.696 0l-59.5968 58.9824c-8.192 8.192-8.192 21.2992 0 29.4912l39.1168 38.912z" fill="#F8C846" opacity=".2" p-id="1297"></path></svg>